STARTFONT 2.1
FONT -FontForge-Fontdiner Swanky-Book-R-Normal--28-280-72-72-P-177-ISO10646-1
SIZE 28 72 72
FONTBOUNDINGBOX 40 43 -7 -14
COMMENT "Generated by fontforge, http://fontforge.sourceforge.net"
COMMENT "Copyright (c) 2010 by Font Diner, Inc. All rights reserved."
STARTPROPERTIES 39
FOUNDRY "FontForge"
FAMILY_NAME "Fontdiner Swanky"
WEIGHT_NAME "Book"
SLANT "R"
SETWIDTH_NAME "Normal"
ADD_STYLE_NAME ""
PIXEL_SIZE 28
POINT_SIZE 280
RESOLUTION_X 72
RESOLUTION_Y 72
SPACING "P"
AVERAGE_WIDTH 177
CHARSET_REGISTRY "ISO10646"
CHARSET_ENCODING "1"
FONTNAME_REGISTRY ""
CHARSET_COLLECTIONS "ISO10646-1"
FONT_NAME "FontdinerSwanky-Regular"
FACE_NAME "Fontdiner Swanky Regular"
COPYRIGHT "Copyright (c) 2010 by Font Diner, Inc. All rights reserved."
FONT_VERSION "1.001"
FONT_ASCENT 22
FONT_DESCENT 6
UNDERLINE_POSITION -3
UNDERLINE_THICKNESS 2
X_HEIGHT 15
CAP_HEIGHT 16
RAW_ASCENT 799
RAW_DESCENT 200
NORM_SPACE 9
RELATIVE_WEIGHT 40
RELATIVE_SETWIDTH 50
SUPERSCRIPT_X 0
SUPERSCRIPT_Y 13
SUPERSCRIPT_SIZE 17
SUBSCRIPT_X 0
SUBSCRIPT_Y 3
SUBSCRIPT_SIZE 17
AVG_LOWERCASE_WIDTH 177
AVG_UPPERCASE_WIDTH 216
ENDPROPERTIES
CHARS 231
STARTCHAR space
ENCODING 32
SWIDTH 320 0
DWIDTH 9 0
BBX 1 1 0 0
BITMAP
00
ENDCHAR
STARTCHAR exclam
ENCODING 33
SWIDTH 305 0
DWIDTH 9 0
BBX 9 24 0 0
BITMAP
1880
1F00
1F00
1F00
1F00
3F00
3F00
3E00
3E00
3E00
3E00
3E00
3C00
3C00
3C00
3C00
3C00
3C00
3800
0000
7800
F800
FC00
7800
ENDCHAR
STARTCHAR quotedbl
ENCODING 34
SWIDTH 369 0
DWIDTH 10 0
BBX 10 8 0 11
BITMAP
FBC0
FBC0
FBC0
73C0
73C0
73C0
73C0
7380
ENDCHAR
STARTCHAR numbersign
ENCODING 35
SWIDTH 702 0
DWIDTH 20 0
BBX 19 18 0 1
BITMAP
078700
070600
070E00
470E00
7FFFE0
7FFFE0
7FFFE0
0F0E00
0F0E00
0F0E00
0E0E00
FFFFE0
FFFFC0
FFFFC0
0E1FC0
0E1E00
0E1E00
0E1E00
ENDCHAR
STARTCHAR dollar
ENCODING 36
SWIDTH 545 0
DWIDTH 15 0
BBX 15 23 0 -3
BITMAP
0780
0780
0782
0F84
3FE4
7FFC
703C
F01C
F80C
7F04
7FE4
3FF8
4FFC
43FE
407E
603E
781E
7F7C
5FF8
C7E0
8380
0380
03C0
ENDCHAR
STARTCHAR percent
ENCODING 37
SWIDTH 657 0
DWIDTH 18 0
BBX 19 23 0 -1
BITMAP
000C00
080F00
7E0F00
7F1E00
E39E00
E3BC00
F73C00
7F3800
3E7800
007800
00F000
00F000
01E000
01E000
01C000
03CFC0
03DFC0
079CE0
079CE0
071CE0
0F1FC0
0E0F80
0E0000
ENDCHAR
STARTCHAR ampersand
ENCODING 38
SWIDTH 668 0
DWIDTH 19 0
BBX 22 25 1 -4
BITMAP
0FC000
1FE000
38F000
787000
787000
787000
3C7000
3EE000
1FC000
0F8400
0F8400
3FC600
7BE300
71F300
F0FF80
F0FEC0
F87C0C
FC3FF0
FFFFC0
7FFF80
1F0E00
001C00
003000
002000
004000
ENDCHAR
STARTCHAR quotesingle
ENCODING 39
SWIDTH 177 0
DWIDTH 5 0
BBX 5 8 0 11
BITMAP
F8
F8
F8
70
70
70
70
70
ENDCHAR
STARTCHAR parenleft
ENCODING 40
SWIDTH 384 0
DWIDTH 11 0
BBX 10 28 1 -4
BITMAP
0040
0180
0700
0E00
1E00
3C00
3C00
7800
7800
7800
7800
F800
F800
F800
F800
F800
F800
7800
7800
7800
7C00
3C00
3E00
1E00
0F00
0700
0380
00C0
ENDCHAR
STARTCHAR parenright
ENCODING 41
SWIDTH 375 0
DWIDTH 11 0
BBX 9 28 0 -4
BITMAP
8000
6000
3800
3C00
1E00
0F00
0F00
0F00
0780
0780
0780
0780
0780
0780
0780
0780
0780
0780
0780
0F80
0F00
0F00
1E00
1E00
3C00
3800
6000
8000
ENDCHAR
STARTCHAR asterisk
ENCODING 42
SWIDTH 640 0
DWIDTH 18 0
BBX 18 18 0 0
BITMAP
041000
3E3800
1E3E00
0F3E00
0F7C00
07F800
63F000
FFFFC0
FFFFC0
FFFFC0
FFF7C0
07F000
077800
0F7C00
1E3E00
1E3C00
0E3000
040000
ENDCHAR
STARTCHAR plus
ENCODING 43
SWIDTH 607 0
DWIDTH 17 0
BBX 17 16 0 1
BITMAP
03E000
03E000
03E000
03E000
03E000
FFE000
FFFF80
FFFF80
FFFF80
FFC000
03C000
01C000
01C000
01C000
01C000
01C000
ENDCHAR
STARTCHAR comma
ENCODING 44
SWIDTH 226 0
DWIDTH 6 0
BBX 6 8 0 -6
BITMAP
78
FC
FC
7C
3C
38
30
60
ENDCHAR
STARTCHAR hyphen
ENCODING 45
SWIDTH 549 0
DWIDTH 15 0
BBX 12 5 2 7
BITMAP
FFE0
FFF0
FFF0
FFF0
FC00
ENDCHAR
STARTCHAR period
ENCODING 46
SWIDTH 226 0
DWIDTH 6 0
BBX 6 4 0 -2
BITMAP
78
FC
FC
7C
ENDCHAR
STARTCHAR slash
ENCODING 47
SWIDTH 600 0
DWIDTH 17 0
BBX 19 27 -1 -2
BITMAP
000200
000300
0007C0
0007E0
000FC0
001F80
001F00
003F00
003E00
007E00
007C00
00F800
01F800
01F000
03F000
03E000
07C000
07C000
0F8000
1F0000
1F0000
3E0000
3E0000
7C0000
F80000
780000
100000
ENDCHAR
STARTCHAR zero
ENCODING 48
SWIDTH 740 0
DWIDTH 21 0
BBX 19 18 1 0
BITMAP
01F000
0FFE00
3FFF00
7F0F80
7C07C0
F803C0
F803E0
F003E0
F003E0
F003E0
F003E0
F803E0
F803C0
7C07C0
7E0F80
3FFF00
0FFE00
03F000
ENDCHAR
STARTCHAR one
ENCODING 49
SWIDTH 503 0
DWIDTH 14 0
BBX 18 21 -2 -1
BITMAP
00F000
0FF000
FFF000
03F000
01F000
01F000
01F000
01F000
01F000
01F000
01F000
00F000
00F000
00F000
00F000
00F000
00F000
00F000
01F800
0FFE00
3FFFC0
ENDCHAR
STARTCHAR two
ENCODING 50
SWIDTH 638 0
DWIDTH 18 0
BBX 17 23 0 -1
BITMAP
400000
400000
63F800
67FE00
7FFF00
3E0F00
3C0F80
380780
300780
300F80
200F80
201F00
207E80
01FC80
07F080
0F8180
1F0180
3E0380
7C0380
FFFF00
FFFF00
FFFF00
07FF00
ENDCHAR
STARTCHAR three
ENCODING 51
SWIDTH 620 0
DWIDTH 17 0
BBX 18 25 -1 -3
BITMAP
400000
400000
60E000
27FC00
3FFF00
3F1F00
3C0F80
380780
100780
100780
100F80
01BF00
01FF00
01FF80
103F80
100FC0
1007C0
3007C0
380FC0
3C1F80
3FFF00
6FFE00
43F800
400000
800000
ENDCHAR
STARTCHAR four
ENCODING 52
SWIDTH 606 0
DWIDTH 17 0
BBX 18 24 -1 -2
BITMAP
000400
000400
000C00
001C00
003C00
003C00
007C00
00FC00
01FC00
03FC00
07FC40
077C40
0F7C80
1E7C80
3C7D80
7FFF80
FFFF80
003D80
003C80
003880
003880
007880
01FE00
0FFFC0
ENDCHAR
STARTCHAR five
ENCODING 53
SWIDTH 610 0
DWIDTH 17 0
BBX 16 22 0 -1
BITMAP
0001
00FF
7FFF
FFFF
FF86
7002
7802
7802
7FF2
7FFC
7FFE
307F
201F
001F
401F
401F
601F
783F
7FFE
7FFC
4FF8
83E0
ENDCHAR
STARTCHAR six
ENCODING 54
SWIDTH 619 0
DWIDTH 17 0
BBX 17 25 0 -2
BITMAP
000200
000200
000200
008600
07F600
0FFE00
1FFE00
3F1E00
3E0700
7C0300
7DE100
7FFC00
FFFF00
FE1F00
FC0F80
F80780
F80780
F80780
F80780
F80780
7C0F80
7C0F00
3F7E00
1FFC00
07F000
ENDCHAR
STARTCHAR seven
ENCODING 55
SWIDTH 598 0
DWIDTH 17 0
BBX 18 22 0 -2
BITMAP
FFF000
FFFFC0
7FFFC0
787F80
701F80
301F00
301F00
303F00
103E00
103E00
003C00
007C00
007C00
007800
007800
00F000
00F000
00F000
01E000
07F800
3FFE00
0001C0
ENDCHAR
STARTCHAR eight
ENCODING 56
SWIDTH 642 0
DWIDTH 18 0
BBX 18 23 0 -3
BITMAP
01E000
0FFC00
1FFE00
3E1F00
3C0F00
7C0F80
7C0F80
7C0F80
3C0F80
3E1F00
1FFE00
3FFF00
7FFF80
7E0FC0
FC0FC0
F807C0
F807C0
FC07C0
7C0FC0
7E1F80
3FFF00
0FFC00
004000
ENDCHAR
STARTCHAR nine
ENCODING 57
SWIDTH 610 0
DWIDTH 17 0
BBX 17 24 0 -4
BITMAP
07F000
1FF800
3F7E00
7C1E00
780F00
F80F00
F80F80
F80F80
F80F80
F80F80
7C1F80
7FFF80
3FFF80
0FFF00
418F00
201F00
303E00
3C7E00
3FFC00
3FF800
33F000
300000
200000
200000
ENDCHAR
STARTCHAR colon
ENCODING 58
SWIDTH 223 0
DWIDTH 6 0
BBX 6 11 0 -2
BITMAP
78
FC
FC
78
00
00
00
78
FC
FC
78
ENDCHAR
STARTCHAR semicolon
ENCODING 59
SWIDTH 228 0
DWIDTH 6 0
BBX 6 15 0 -6
BITMAP
78
FC
FC
78
00
00
00
78
FC
FC
FC
38
38
30
40
ENDCHAR
STARTCHAR less
ENCODING 60
SWIDTH 563 0
DWIDTH 16 0
BBX 17 18 0 0
BITMAP
000300
000F00
003F00
007F00
01FF80
07FE00
0FF800
3FE000
FF8000
7E0000
1F8000
07C000
03E000
00F000
007C00
001F00
000E00
000200
ENDCHAR
STARTCHAR equal
ENCODING 61
SWIDTH 531 0
DWIDTH 15 0
BBX 15 11 0 2
BITMAP
FFF0
FFFE
FFFE
FFFC
FE00
0000
FFFE
FFFE
FFFE
FFFE
003C
ENDCHAR
STARTCHAR greater
ENCODING 62
SWIDTH 576 0
DWIDTH 16 0
BBX 17 18 0 0
BITMAP
600000
780000
7C0000
FF0000
FFC000
3FE000
0FF800
03FE00
00FF80
007E00
00FC00
01F000
03C000
0F8000
1E0000
3C0000
700000
600000
ENDCHAR
STARTCHAR question
ENCODING 63
SWIDTH 592 0
DWIDTH 17 0
BBX 16 26 0 -1
BITMAP
2000
2000
2000
7FE0
7FFC
707E
403F
801F
800F
800F
000F
001F
003F
0EFE
0FFC
0FF0
1F00
1F00
1E00
0E00
0000
3800
7C00
7E00
7E00
3800
ENDCHAR
STARTCHAR at
ENCODING 64
SWIDTH 792 0
DWIDTH 22 0
BBX 23 20 0 -1
BITMAP
007E00
03FFC0
0FC3E0
1E00F0
3C3C78
78FF3C
71C71C
F1C79E
F1C39E
F0839E
F0FF9E
F1FF9E
F3C71E
F3C71C
73FF1C
79FF3C
3C07B8
1E03F0
0FC1C0
01FE00
ENDCHAR
STARTCHAR A
ENCODING 65
SWIDTH 788 0
DWIDTH 22 0
BBX 32 25 -4 -6
BITMAP
03F00000
00FF8000
003F8000
000FC000
0007C000
000FE000
000FE000
001DF000
001DF000
0038F800
0030F800
00707C00
007FFC00
00FFFE00
00FFFE00
01C03F00
01801F00
03801F80
1FC00F80
FFE00FC0
0FF80FF0
000407FF
00000FF0
00001F00
00007000
ENDCHAR
STARTCHAR B
ENCODING 66
SWIDTH 774 0
DWIDTH 22 0
BBX 25 22 -3 -3
BITMAP
FE000000
3FFFE000
1FFFFC00
07E1FE00
03E01F00
03E00F80
03E00F80
03E00F00
03E03F00
03FFFE00
03FFF800
03FFF000
03E3FC00
01E07E00
01E03F00
01E01F00
01E03F00
01E07E00
01F7FC00
03FFF800
0FFF8000
7FC00000
ENDCHAR
STARTCHAR C
ENCODING 67
SWIDTH 766 0
DWIDTH 21 0
BBX 20 23 1 -2
BITMAP
000010
000010
03FC30
0FFF70
1FFFE0
3F03E0
7E00E0
FC00E0
FC0060
F80020
F80020
F80000
F80000
F80000
F80020
F80020
7C0060
7E0060
3F00E0
1FC7E0
0FFFA0
03FF10
003010
ENDCHAR
STARTCHAR D
ENCODING 68
SWIDTH 833 0
DWIDTH 23 0
BBX 26 20 -3 -1
BITMAP
FFFFC000
1FFFF800
07FFFE00
01F83F00
00F80F80
00F80780
00F807C0
00F807C0
00F807C0
00F803C0
00F803C0
00F807C0
00F807C0
00F807C0
00F80780
00F80F80
00F03F00
01FFFE00
07FFF800
3FE00000
ENDCHAR
STARTCHAR E
ENCODING 69
SWIDTH 781 0
DWIDTH 22 0
BBX 24 21 -3 -1
BITMAP
0003FF
FFFFFF
1FFFCF
03F007
01F047
01F047
01F042
01F0C2
01F0C1
01F1C1
01FFC2
00FFC2
00FFC2
00F1C2
00F186
00F086
00F046
00F00E
03FFFE
0FFFFE
7FFFFE
ENDCHAR
STARTCHAR F
ENCODING 70
SWIDTH 731 0
DWIDTH 20 0
BBX 22 22 -2 -2
BITMAP
0003FC
FFFFFC
3FFFFC
07E01C
03E01C
03E09C
03E10C
03E10C
03E304
03E304
03FF04
03FF00
03FF00
03E700
03E300
03E100
03E100
03E100
03E000
07F000
1FFC00
7FFF80
ENDCHAR
STARTCHAR G
ENCODING 71
SWIDTH 828 0
DWIDTH 23 0
BBX 25 22 1 -1
BITMAP
00001000
00003000
03FE7000
0FFFF000
1FFFE000
3F03E000
7E00E000
FC006000
FC006000
F8002000
F8002000
F8600180
F81FFE00
F803F000
F801F000
FC01F000
7C01F000
7E01F000
3F03F000
1FFFF000
0FFF1000
03FC1000
ENDCHAR
STARTCHAR H
ENCODING 72
SWIDTH 797 0
DWIDTH 22 0
BBX 28 22 -3 -2
BITMAP
000FFFE0
0001FF80
C0027E00
3FFC3E00
0FF03E00
03E03C00
03E03C00
03E03C00
03E03C00
03E03C00
03E03C00
03FFFC00
03FFFC00
03FE3C00
03C03C00
03C03C00
03C03C00
03C03C00
03C0FF00
03C7FFF0
07E00000
FFFF8000
ENDCHAR
STARTCHAR I
ENCODING 73
SWIDTH 445 0
DWIDTH 12 0
BBX 18 21 -3 -2
BITMAP
FFFFC0
07FC00
01F000
01F000
01F000
01F000
01F000
01F000
01F000
01F000
01F000
01F000
01F000
01F000
00F000
00F000
00F000
00F000
00F000
01F800
3FFFC0
ENDCHAR
STARTCHAR J
ENCODING 74
SWIDTH 718 0
DWIDTH 20 0
BBX 26 25 -3 -4
BITMAP
000000C0
00003F00
001FFC00
07FFF000
0003F000
0001F000
0001F000
0001F000
0000F000
0000F000
0000F800
0000F800
0000F800
0000F800
0000F800
0000F800
FFF0F800
1F80F800
0700F000
0700F000
0781F000
03C3E000
01FFC000
00FF8000
00180000
ENDCHAR
STARTCHAR K
ENCODING 75
SWIDTH 934 0
DWIDTH 26 0
BBX 34 23 -2 -2
BITMAP
0001800000
FFFE000000
0FF1FFFE00
03E01FF000
03E00F8000
03E03E0000
03E0780000
03E1F00000
03E7C00000
03EF800000
03FFC00000
03F9E00000
03E1F00000
01E0F80000
01E07C0000
01E07C0000
01E03E0000
01E01F0000
01E01F8000
07FC0FC000
3FFFC7C000
40000FF800
0000FFFFC0
ENDCHAR
STARTCHAR L
ENCODING 76
SWIDTH 712 0
DWIDTH 20 0
BBX 23 22 -3 0
BITMAP
FFFFE0
0FFE00
01F800
01F800
01F800
01F800
01F800
01F800
00F800
00F802
00F802
00F002
00F006
00F006
00F006
00F00E
00F00E
00F00E
00F01E
03FFFE
0FFFFE
3F8000
ENDCHAR
STARTCHAR M
ENCODING 77
SWIDTH 1033 0
DWIDTH 29 0
BBX 33 21 -2 -1
BITMAP
FFF003FF80
1FF003F800
07F807E000
03F807E000
03FC0FE000
03FC0FE000
03FE1FE000
03BE3FE000
03BF3BE000
01DF7BE000
01DFF3E000
01CFF3E000
01CFE3E000
01C7E3E000
01C3C3E000
01C3C3E000
01C183E000
01C183E000
01C10FF800
0FFC3FFF00
FFFFC00080
ENDCHAR
STARTCHAR N
ENCODING 78
SWIDTH 840 0
DWIDTH 24 0
BBX 30 21 -3 -1
BITMAP
7FF7FFFC
0FF87FC0
03FC0F00
01FE0700
01FE0700
01FF0700
01FF8700
01DFC700
01CFE600
01C7E600
01C3F600
01C1FE00
01C0FE00
01C0FE00
01C07E00
01C03E00
01C01E00
03F80E00
1FFE0600
FFFFE200
00000200
ENDCHAR
STARTCHAR O
ENCODING 79
SWIDTH 808 0
DWIDTH 23 0
BBX 21 17 1 0
BITMAP
03FE00
1FFF80
3FFFE0
7E03E0
FC01F0
F801F8
F800F8
F800F8
F800F8
F800F8
F800F8
F801F8
7C01F0
7E03E0
3F9FC0
1FFF80
07FE00
ENDCHAR
STARTCHAR P
ENCODING 80
SWIDTH 746 0
DWIDTH 21 0
BBX 24 19 -3 -1
BITMAP
FFFF00
0FFFF0
03FFFE
01E03F
01E00F
01F00F
01F00F
01F07E
01FFF8
01FFC0
01F000
01F000
01F000
01F000
01F000
01F000
03F800
0FFF00
7FFFE0
ENDCHAR
STARTCHAR Q
ENCODING 81
SWIDTH 789 0
DWIDTH 22 0
BBX 24 26 1 -8
BITMAP
03FC00
0FFF80
3FFFC0
7E07E0
7C03E0
FC01F0
F801F0
F801F0
F801F0
F801F0
F801F0
F801F0
7C03E0
7E03E0
3F1FC0
1FFF80
07FE00
003E00
003E00
001F00
001FE0
001FFF
001FF0
007F80
00F800
038000
ENDCHAR
STARTCHAR R
ENCODING 82
SWIDTH 826 0
DWIDTH 23 0
BBX 33 25 -2 -7
BITMAP
FFFF000000
1FFFF00000
07FFFC0000
03E03E0000
03E01E0000
03E00E0000
03E01E0000
03E0FC0000
03FFF00000
03FFE00000
03E1E00000
03E1F00000
03E0F80000
03E0F80000
03E07C0000
03E03E0000
07F83E0000
1FFE1F0000
7FFFDFFF80
00000FFC00
00000FE000
00001F8000
00003C0000
0000700000
0000C00000
ENDCHAR
STARTCHAR S
ENCODING 83
SWIDTH 661 0
DWIDTH 19 0
BBX 18 23 0 -3
BITMAP
000040
000040
0FF8C0
3FFFC0
7C1FC0
780780
F80180
FC0080
FF8080
7FF800
3FFE00
1FFF00
03FF80
203FC0
200FC0
2007C0
3007C0
3C07C0
3FFF80
2FFE00
61F800
400000
400000
ENDCHAR
STARTCHAR T
ENCODING 84
SWIDTH 754 0
DWIDTH 21 0
BBX 19 20 1 -1
BITMAP
FFFFE0
FFFFE0
FFFFE0
E1F0E0
E1F0E0
41F0C0
41F040
41F040
41F040
41F040
01F000
01F000
01F000
01F000
01F000
01F000
01E000
07FC00
1FFF00
6003C0
ENDCHAR
STARTCHAR U
ENCODING 85
SWIDTH 725 0
DWIDTH 20 0
BBX 26 19 -3 -1
BITMAP
FF03FFC0
0FFC3C00
07C01C00
07C01C00
07C01C00
07C01C00
07C01C00
07C01C00
07C01C00
07C01800
07C01800
07C01800
07C01800
07E01800
03E03800
03F07000
01FFE000
00FFC000
001E0000
ENDCHAR
STARTCHAR V
ENCODING 86
SWIDTH 786 0
DWIDTH 22 0
BBX 30 22 -4 -2
BITMAP
00070000
00FC4000
0FF03F00
FFE00FFC
03F007C0
01F00700
01F80E00
00F80E00
00F81C00
007C1C00
007C3800
003E3000
003E7000
001F6000
001FE000
000FC000
000FC000
00078000
00078000
00030000
00030000
00020000
ENDCHAR
STARTCHAR W
ENCODING 87
SWIDTH 1026 0
DWIDTH 29 0
BBX 37 21 -4 -3
BITMAP
83FF83F000
7FF8107FF8
07E0301FC0
03E0380E00
01F0380C00
01F07C1C00
01F87C1C00
00F8FE1800
00F8FE3800
007DFF3800
007DFF3000
003FCFF000
003FCFE000
003F87E000
001F87E000
001F03C000
000F03C000
000E038000
0006018000
0004018000
0004008000
ENDCHAR
STARTCHAR X
ENCODING 88
SWIDTH 860 0
DWIDTH 24 0
BBX 30 18 -3 -1
BITMAP
21FF8008
1FF8FFF0
01F83F80
00FC1E00
007C3800
003EF000
001FE000
001FC000
000FC000
000FE000
003FF000
007BF000
00F1F800
01E0FC00
07C07E00
1FE03F00
FFF87FC0
0003FFFC
ENDCHAR
STARTCHAR Y
ENCODING 89
SWIDTH 848 0
DWIDTH 24 0
BBX 30 20 -4 -2
BITMAP
FFFF0000
1FF86000
03F81FFC
00F807C0
007C0700
003E0E00
003F1C00
001FB800
000FF000
0007E000
0003C000
0003C000
0003C000
0003C000
0003E000
0003E000
0003E000
0003E000
000FFC00
007FFFC0
ENDCHAR
STARTCHAR Z
ENCODING 90
SWIDTH 685 0
DWIDTH 19 0
BBX 20 17 0 0
BITMAP
FFFFF0
7FFFE0
7FFFC0
701F80
303F80
303F00
207E00
20FC20
21F820
03F820
07F060
0FE060
0FC0E0
1F81E0
3FFFE0
7FFFC0
801FC0
ENDCHAR
STARTCHAR bracketleft
ENCODING 91
SWIDTH 380 0
DWIDTH 11 0
BBX 11 26 2 -3
BITMAP
FFE0
FF00
FC00
F000
F000
F000
F000
F000
F000
F000
F000
F000
F000
F000
F000
F000
F000
F000
F000
F000
F000
F000
F000
F000
FC00
FFC0
ENDCHAR
STARTCHAR backslash
ENCODING 92
SWIDTH 680 0
DWIDTH 19 0
BBX 19 27 0 -2
BITMAP
080000
180000
7C0000
FC0000
7E0000
3F0000
3F0000
1F8000
0F8000
0FC000
07C000
03E000
03F000
01F000
01F800
00F800
007C00
007C00
003E00
001F00
001F00
000F80
000F80
0007C0
0003E0
0003C0
000100
ENDCHAR
STARTCHAR bracketright
ENCODING 93
SWIDTH 371 0
DWIDTH 10 0
BBX 11 26 -2 -3
BITMAP
FFE0
1FE0
07E0
01E0
01E0
01E0
01E0
01E0
01E0
01E0
01E0
01E0
01E0
01E0
01E0
01E0
01E0
01E0
01E0
01E0
01E0
01E0
01E0
01E0
07E0
7FE0
ENDCHAR
STARTCHAR asciicircum
ENCODING 94
SWIDTH 671 0
DWIDTH 19 0
BBX 19 17 0 8
BITMAP
004000
00C000
00E000
01E000
03F000
03F000
07F800
07FC00
0FBC00
1F9E00
1F0F00
3F0700
3E0380
7E03C0
FC01C0
FC00E0
380000
ENDCHAR
STARTCHAR underscore
ENCODING 95
SWIDTH 840 0
DWIDTH 24 0
BBX 24 5 0 -3
BITMAP
FFFFFE
FFFFFE
FFFFFE
FFFFFE
FFFFFF
ENDCHAR
STARTCHAR grave
ENCODING 96
SWIDTH 707 0
DWIDTH 20 0
BBX 6 7 8 16
BITMAP
30
F0
78
78
38
3C
10
ENDCHAR
STARTCHAR a
ENCODING 97
SWIDTH 572 0
DWIDTH 16 0
BBX 17 17 1 -1
BITMAP
020000
1FE000
7FF000
707800
F87800
F83C00
703C00
003C00
3FFC00
FFF800
F07800
F07800
F07800
FFF800
3FF800
00FF00
00E080
ENDCHAR
STARTCHAR b
ENCODING 98
SWIDTH 723 0
DWIDTH 20 0
BBX 24 25 -4 -4
BITMAP
00F000
FFF000
1FF000
03F000
01F000
01F000
01F000
01F000
01F000
01F000
01F000
01F000
01F080
01FFF8
01FFFE
01F07E
01E01F
00E01F
00E01F
00E01F
00E03E
00E07C
01FFF8
03FFE0
1FFC00
ENDCHAR
STARTCHAR c
ENCODING 99
SWIDTH 589 0
DWIDTH 17 0
BBX 15 16 1 -2
BITMAP
03E0
0FF8
3FFC
7C3E
783E
F83E
F81C
F800
F802
F802
F802
7C06
7F3C
3FFC
1FF0
0380
ENDCHAR
STARTCHAR d
ENCODING 100
SWIDTH 713 0
DWIDTH 20 0
BBX 22 27 1 -5
BITMAP
00FF00
001FE0
0007E0
0003E0
0003C0
0007C0
0007C0
0007C0
0007C0
0007C0
0007C0
07E7C0
1FFF80
3FFF80
7C0F80
780780
F80780
F00780
F00780
F80700
780700
7C0700
3FFF00
0FFF00
00EFC0
000FFC
000800
ENDCHAR
STARTCHAR e
ENCODING 101
SWIDTH 593 0
DWIDTH 17 0
BBX 15 15 1 -2
BITMAP
07C0
1FF0
3FF8
7C3C
F81E
F01E
F01E
FFFE
FFFE
F000
7802
7C0C
3FF8
1FF0
0380
ENDCHAR
STARTCHAR f
ENCODING 102
SWIDTH 507 0
DWIDTH 14 0
BBX 17 38 -1 -11
BITMAP
007800
01FE00
01EF00
03C780
038780
078780
078780
078200
078000
078000
078000
078000
078000
7FFE00
7FFE00
07C000
03C000
03C000
03C000
03C000
03C000
03E000
03E000
03E000
01E000
01E000
01E000
01E000
01E000
01E000
01E000
E1E000
F1E000
F1E000
E1E000
F3C000
7F8000
1F0000
ENDCHAR
STARTCHAR g
ENCODING 103
SWIDTH 606 0
DWIDTH 17 0
BBX 18 32 0 -14
BITMAP
000200
000FC0
001FC0
001FC0
07FBC0
1FFD80
3E3E00
3C1E00
780F00
780F00
780F00
780F00
780F00
780F00
3C1E00
1E3C00
0FF800
3FE000
3C0000
3FF800
3FFE00
1FFF00
7C0F80
7807C0
F807C0
F003C0
F003C0
F807C0
780780
3E1F00
1FFE00
03F800
ENDCHAR
STARTCHAR h
ENCODING 104
SWIDTH 678 0
DWIDTH 19 0
BBX 26 26 -4 -2
BITMAP
00F00000
FFF00000
1FF00000
01F00000
01F00000
01F00000
01F00000
01F00000
01F00000
01F00000
01F00000
01F00000
01F00000
01FFE000
01FFF800
01F07C00
01E03C00
01E03C00
01E03C00
01E03C00
01E03C00
00E03C00
03F03800
0FFE3800
1000FE00
0003FFC0
ENDCHAR
STARTCHAR i
ENCODING 105
SWIDTH 393 0
DWIDTH 11 0
BBX 13 22 -1 0
BITMAP
0780
07C0
0FC0
07C0
07C0
0100
0000
FFC0
3FC0
0FC0
07C0
07C0
07C0
03C0
03C0
03C0
03C0
0380
0380
07C0
1FE0
7FF8
ENDCHAR
STARTCHAR j
ENCODING 106
SWIDTH 385 0
DWIDTH 11 0
BBX 12 31 -2 -10
BITMAP
0200
0F80
0F80
0FC0
0F80
0780
0000
0020
7FC0
1FC0
03E0
03E0
03E0
01E0
01E0
01E0
01E0
01E0
01E0
01E0
01F0
01F0
00F0
00F0
F0F0
F0F0
F0E0
F1E0
7FC0
3F80
0400
ENDCHAR
STARTCHAR k
ENCODING 107
SWIDTH 749 0
DWIDTH 21 0
BBX 28 26 -4 -3
BITMAP
00100000
FFF00000
07F00000
01F00000
01F00000
01F7FFE0
01F0FF00
01F07C00
01F07800
01F0E000
01F3C000
01F78000
01FF8000
00FFC000
00FBC000
00F1E000
00F0F000
00F0F000
00F07800
00F07800
00F03C00
03FC1E00
0FFF9FC0
10003FF0
00007C00
00018000
ENDCHAR
STARTCHAR l
ENCODING 108
SWIDTH 369 0
DWIDTH 10 0
BBX 15 26 -3 -2
BITMAP
FFE0
1FE0
03E0
03E0
03E0
03E0
03E0
03E0
03E0
03E0
03E0
03E0
03E0
01E0
01E0
01E0
01E0
01E0
01E0
01E0
01C0
01C0
01C0
03E0
07F8
3FFE
ENDCHAR
STARTCHAR m
ENCODING 109
SWIDTH 990 0
DWIDTH 28 0
BBX 33 13 -3 2
BITMAP
03E781C000
FFFFEFF000
0FFFFFF800
03F1FEF800
03E0F87800
01E0F07800
01E0703800
01C0707800
01C0707800
01C0707800
03F070FC00
1FF8F3FF80
001FFE0000
ENDCHAR
STARTCHAR n
ENCODING 110
SWIDTH 643 0
DWIDTH 18 0
BBX 23 13 -3 2
BITMAP
03E780
FFFFE0
0FFFF0
03F1F0
03E0F0
01E0F0
01E070
01C070
01C070
01C070
03F070
1FF8F0
001FFE
ENDCHAR
STARTCHAR o
ENCODING 111
SWIDTH 705 0
DWIDTH 20 0
BBX 19 13 0 0
BITMAP
07FE00
1FFF80
3E07C0
7C03E0
7801E0
F801E0
F801E0
F801E0
7801E0
7C03E0
3E0FC0
1FFF00
07FC00
ENDCHAR
STARTCHAR p
ENCODING 112
SWIDTH 723 0
DWIDTH 20 0
BBX 23 23 -3 -7
BITMAP
002000
FFE000
3FE000
07FFE0
03FFF8
03E07C
03E03E
03E01E
03E01E
03E01E
01E03E
01E03C
01F0FC
01FFF8
01FFE0
01E000
01E000
01E000
01E000
01E000
03F000
0FFE00
7FC180
ENDCHAR
STARTCHAR q
ENCODING 113
SWIDTH 682 0
DWIDTH 19 0
BBX 23 22 0 -6
BITMAP
000FFE
000FF0
07FFC0
1FFF80
3F1F80
7C0F80
780F80
F00F80
F00F80
F80F80
780F80
7C0F80
3FFF80
1FFF00
03EF00
000F00
000F00
000F00
000F00
000F00
007FC0
01FFFC
ENDCHAR
STARTCHAR r
ENCODING 114
SWIDTH 595 0
DWIDTH 17 0
BBX 20 17 -2 0
BITMAP
002000
07E7C0
FFFFE0
1FFFF0
03F3E0
03E1E0
03E000
03E000
01E000
01E000
01E000
01E000
01E000
01E000
03FC00
0FFF80
7FC000
ENDCHAR
STARTCHAR s
ENCODING 115
SWIDTH 533 0
DWIDTH 15 0
BBX 14 18 1 -1
BITMAP
0008
3F88
7FE8
F0F8
E038
F018
FC08
FF88
7FE0
3FF8
8FF8
C1FC
C07C
F03C
FEF8
FFF0
8FE0
8000
ENDCHAR
STARTCHAR t
ENCODING 116
SWIDTH 422 0
DWIDTH 12 0
BBX 13 26 0 -1
BITMAP
0300
0700
0700
0700
0F00
1E00
7E00
FFF8
FFF0
1FF0
1E00
3E00
3E00
3E00
3E00
3C00
3C00
3C00
3C10
3C10
3C10
3C30
3EE0
3FE0
1FC0
0780
ENDCHAR
STARTCHAR u
ENCODING 117
SWIDTH 614 0
DWIDTH 17 0
BBX 22 15 -3 -1
BITMAP
FFB000
1F8FF0
0F83F0
0781E0
0781E0
0781E0
0781E0
0781E0
0781E0
0781E0
0781C0
07C7C0
03FFE0
01FDFC
0001E0
ENDCHAR
STARTCHAR v
ENCODING 118
SWIDTH 639 0
DWIDTH 18 0
BBX 25 17 -4 -2
BITMAP
00FC0000
FFE80000
1FC7FC80
03E1FF00
03E07800
01E06000
01F0E000
00F0C000
00F9C000
00798000
003F8000
003F0000
001F0000
001E0000
000E0000
000C0000
00040000
ENDCHAR
STARTCHAR w
ENCODING 119
SWIDTH 805 0
DWIDTH 23 0
BBX 31 17 -4 -1
BITMAP
000E1000
FFF08FFE
0FC083E0
03E1C380
03E1C380
01E3C300
01F3E700
00F7E600
00FFFE00
007EFE00
007EFC00
007C7C00
003C7800
00383800
00183000
00101000
00001000
ENDCHAR
STARTCHAR x
ENCODING 120
SWIDTH 717 0
DWIDTH 20 0
BBX 26 17 -3 -1
BITMAP
00070000
07F80000
FFEC1FC0
03E3FE00
01F0F000
00F9E000
007FC000
007F0000
003E0000
001F0000
007F8000
00F7C000
01E3E000
0FE1E000
7FFCFC00
0001FFC0
000FE000
ENDCHAR
STARTCHAR y
ENCODING 121
SWIDTH 655 0
DWIDTH 18 0
BBX 20 28 -2 -13
BITMAP
E00000
3C7C00
1F8FF0
0FC7E0
0F81E0
0F81E0
1F81E0
1F01E0
1F01E0
1F01E0
1F01E0
0FC3E0
0FFFE0
07FFE0
0003E0
0003E0
0003E0
0003E0
0003E0
0003E0
0E03E0
1F03C0
1E03C0
1E07C0
0E0F80
07FF00
03FE00
007000
ENDCHAR
STARTCHAR z
ENCODING 122
SWIDTH 549 0
DWIDTH 15 0
BBX 17 16 0 -1
BITMAP
003F80
FFFF00
7FFE00
707C00
70F800
61F800
21F000
23E200
27E200
0FC600
1F8600
1F0E00
3F8E00
7FFE00
FFFE00
000200
ENDCHAR
STARTCHAR braceleft
ENCODING 123
SWIDTH 708 0
DWIDTH 20 0
BBX 16 26 2 -3
BITMAP
07FF
07F8
07E0
0780
0780
0780
0780
0780
0780
0780
0780
0780
1F80
FF80
1F80
0780
0780
0780
0780
0780
0780
0380
0380
0380
03E0
03FE
ENDCHAR
STARTCHAR bar
ENCODING 124
SWIDTH 304 0
DWIDTH 9 0
BBX 5 25 2 -2
BITMAP
F8
F8
F8
F8
F8
F8
F8
F0
F0
F0
F0
F0
F0
F0
F0
F0
F0
F0
F0
F0
F0
F0
F0
F0
F0
ENDCHAR
STARTCHAR braceright
ENCODING 125
SWIDTH 517 0
DWIDTH 15 0
BBX 16 26 0 -3
BITMAP
FFE0
3FE0
0FE0
03E0
03E0
03E0
03E0
03C0
03C0
03C0
03C0
03C0
03F8
03FF
03F0
03C0
03C0
03C0
03C0
03C0
03C0
03C0
03C0
03C0
0FC0
7FC0
ENDCHAR
STARTCHAR asciitilde
ENCODING 126
SWIDTH 466 0
DWIDTH 13 0
BBX 13 6 0 6
BITMAP
0008
FE18
FFF8
FFF8
EFF8
80E0
ENDCHAR
STARTCHAR uni00A0
ENCODING 160
SWIDTH 320 0
DWIDTH 9 0
BBX 1 1 0 0
BITMAP
00
ENDCHAR
STARTCHAR exclamdown
ENCODING 161
SWIDTH 305 0
DWIDTH 9 0
BBX 9 24 0 -9
BITMAP
0F00
1F80
1F00
0F00
0000
0E00
1E00
1E00
1E00
1E00
1E00
3E00
3E00
3E00
3E00
3C00
3C00
7C00
7C00
7C00
7C00
7C00
FC00
1C00
ENDCHAR
STARTCHAR cent
ENCODING 162
SWIDTH 417 0
DWIDTH 12 0
BBX 12 23 0 -3
BITMAP
0F00
0700
0700
0700
0F80
3FC0
78E0
70F0
F0F0
E060
E000
E000
E010
F010
F030
7C60
3FC0
1F80
0700
0700
0700
0F00
0F00
ENDCHAR
STARTCHAR sterling
ENCODING 163
SWIDTH 658 0
DWIDTH 18 0
BBX 19 21 0 -1
BITMAP
000040
000040
03FCC0
07FFC0
0F9FC0
1F07C0
1E0380
1E0180
FFF880
FFF880
FFF880
0700A0
070020
FFF820
FFF860
7FF840
0F00C0
0F00C0
1FFFC0
1FFFC0
3FFFC0
ENDCHAR
STARTCHAR currency
ENCODING 164
SWIDTH 358 0
DWIDTH 10 0
BBX 10 10 0 5
BITMAP
2100
7F80
FFC0
7F80
7380
3380
3F00
7F80
EDC0
4080
ENDCHAR
STARTCHAR yen
ENCODING 165
SWIDTH 796 0
DWIDTH 22 0
BBX 27 19 -4 0
BITMAP
000C0000
DFF00000
3FC1FFE0
03E03F80
01F01C00
00F83800
007C7000
003EE000
001FC000
000F8000
007F0000
007FF000
00070000
007FF000
00FFF000
00078000
00078000
003FF000
03FFFE00
ENDCHAR
STARTCHAR brokenbar
ENCODING 166
SWIDTH 304 0
DWIDTH 9 0
BBX 5 25 2 -2
BITMAP
F8
F8
F8
F8
F8
F8
F8
F0
F0
C0
00
00
00
00
80
F0
F0
F0
F0
F0
F0
F0
F0
F0
F0
ENDCHAR
STARTCHAR section
ENCODING 167
SWIDTH 646 0
DWIDTH 18 0
BBX 16 33 1 -8
BITMAP
0202
1FE2
3FF2
787A
F01E
F00E
F006
F802
FF02
7FC0
3FF0
1FFC
3FFE
79FF
F07F
F01F
F00F
FC0F
7F1E
7FFE
3FF8
1FFC
07FE
41FF
403F
601F
600F
780F
7E1E
DFFC
C7F8
8000
8000
ENDCHAR
STARTCHAR dieresis
ENCODING 168
SWIDTH 708 0
DWIDTH 20 0
BBX 8 3 6 23
BITMAP
E7
E7
E7
ENDCHAR
STARTCHAR copyright
ENCODING 169
SWIDTH 700 0
DWIDTH 20 0
BBX 20 18 0 1
BITMAP
01F800
0FFE00
1F8F80
3C03C0
78F1C0
7398E0
E31CE0
E70870
E70070
E70070
E704E0
E384E0
73F8E0
78F1C0
3C03C0
1FBF00
07FE00
01F000
ENDCHAR
STARTCHAR ordfeminine
ENCODING 170
SWIDTH 399 0
DWIDTH 11 0
BBX 12 11 0 11
BITMAP
3F00
7F80
F380
F1C0
41C0
7FC0
F7C0
E380
FF80
7FC0
03F0
ENDCHAR
STARTCHAR guillemotleft
ENCODING 171
SWIDTH 424 0
DWIDTH 12 0
BBX 12 15 0 -1
BITMAP
0420
0C20
0C70
1CE0
39E0
79C0
73C0
F380
73C0
79C0
38E0
1CE0
0C70
0C20
0420
ENDCHAR
STARTCHAR logicalnot
ENCODING 172
SWIDTH 541 0
DWIDTH 15 0
BBX 16 14 1 2
BITMAP
8004
8004
8004
800C
FFFC
FFFC
FFF8
FFF8
8038
8018
8018
8018
003C
007F
ENDCHAR
STARTCHAR sfthyphen
ENCODING 173
SWIDTH 530 0
DWIDTH 15 0
BBX 15 5 0 7
BITMAP
FFFC
FFFE
FFFE
FFFE
FF00
ENDCHAR
STARTCHAR registered
ENCODING 174
SWIDTH 700 0
DWIDTH 20 0
BBX 20 18 0 1
BITMAP
00F000
07FE00
1FFF80
3C03C0
7801C0
71DEE0
E7FEE0
E0EEE0
E0C070
E0C070
E0C070
E0C0E0
70F0E0
73EDC0
3803C0
1E1F80
0FFE00
01F800
ENDCHAR
STARTCHAR macron
ENCODING 175
SWIDTH 705 0
DWIDTH 20 0
BBX 8 4 7 20
BITMAP
FF
FF
FF
FF
ENDCHAR
STARTCHAR degree
ENCODING 176
SWIDTH 364 0
DWIDTH 10 0
BBX 8 7 1 13
BITMAP
3C
7E
7F
E7
E7
7E
3C
ENDCHAR
STARTCHAR plusminus
ENCODING 177
SWIDTH 607 0
DWIDTH 17 0
BBX 15 18 1 0
BITMAP
07C0
07C0
07C0
07C0
FFF8
FFFE
FFFE
FFFE
0780
0380
0380
0380
0080
FF00
FFFE
FFFE
FFFE
FFE0
ENDCHAR
STARTCHAR twosuperior
ENCODING 178
SWIDTH 440 0
DWIDTH 12 0
BBX 12 15 0 10
BITMAP
4200
7FC0
7FE0
78F0
30F0
20F0
20F0
23F0
2FD0
3F30
3C30
7870
FFF0
FFE0
03E0
ENDCHAR
STARTCHAR threesuperior
ENCODING 179
SWIDTH 442 0
DWIDTH 12 0
BBX 12 17 0 8
BITMAP
8000
4700
7FC0
7FE0
70F0
20F0
20F0
2FE0
0FE0
2FF0
20F0
60F0
79F0
7FE0
5FC0
8000
8000
ENDCHAR
STARTCHAR acute
ENCODING 180
SWIDTH 694 0
DWIDTH 19 0
BBX 6 6 8 21
BITMAP
30
7C
78
70
F0
E0
ENDCHAR
STARTCHAR mu
ENCODING 181
SWIDTH 1000 0
DWIDTH 28 0
BBX 22 21 0 -7
BITMAP
FFA000
3F9FE0
0F83E0
0F81E0
0F01E0
0F01E0
0F01E0
0F01C0
0F01C0
0F01C0
0F83C0
0FCFC0
0FFFC0
0FFDFC
0703E0
070000
070000
070000
070000
070000
070000
ENDCHAR
STARTCHAR paragraph
ENCODING 182
SWIDTH 782 0
DWIDTH 22 0
BBX 24 20 -1 -1
BITMAP
000003
03FFFC
1FFFF0
7FBBC0
7839C0
F039C0
7079C0
7C79C0
3FF9C0
07FFC0
00FFC0
0079C0
0079C0
0073C0
0073C0
0073C0
0077C0
007FF0
01FFFE
3FFE00
ENDCHAR
STARTCHAR periodcentered
ENCODING 183
SWIDTH 226 0
DWIDTH 6 0
BBX 6 5 0 8
BITMAP
38
7C
FC
7C
38
ENDCHAR
STARTCHAR cedilla
ENCODING 184
SWIDTH 780 0
DWIDTH 22 0
BBX 6 9 8 -5
BITMAP
30
70
60
F8
3C
0C
4C
FC
78
ENDCHAR
STARTCHAR onesuperior
ENCODING 185
SWIDTH 390 0
DWIDTH 11 0
BBX 11 14 0 10
BITMAP
0700
FF00
3F00
0F00
0F00
0700
0700
0700
0700
0700
0700
0700
0F80
7FE0
ENDCHAR
STARTCHAR ordmasculine
ENCODING 186
SWIDTH 449 0
DWIDTH 13 0
BBX 14 9 -1 12
BITMAP
1FE0
3FF8
7838
F03C
F03C
703C
7878
3FF0
1FE0
ENDCHAR
STARTCHAR guillemotright
ENCODING 187
SWIDTH 415 0
DWIDTH 12 0
BBX 12 15 0 -1
BITMAP
4200
4300
E300
7380
71C0
39E0
3CE0
1CF0
3DE0
39C0
71C0
7380
E300
4300
4200
ENDCHAR
STARTCHAR onequarter
ENCODING 188
SWIDTH 918 0
DWIDTH 26 0
BBX 26 29 0 -4
BITMAP
00000800
07000C00
FF001E00
3F003E00
0F003C00
0F007800
07007800
0700F000
0701E000
0701E000
0703C000
0703C200
07078400
0F8F0C00
3FCF0C00
403E1C00
001C3C00
003C7C80
0038FC80
0079FD80
00F3DD80
00E3FF80
01E7FF80
01C81D00
03C01C80
07801C80
0700FF00
0F0300C0
02000000
ENDCHAR
STARTCHAR onehalf
ENCODING 189
SWIDTH 1007 0
DWIDTH 28 0
BBX 28 29 0 -4
BITMAP
00000800
07000C00
FF001E00
3F003E00
0F003C00
0F007800
07007800
0700F000
0701E000
0701E000
0703C000
0703C000
07078000
0F8F0000
3FCF4000
403E6FC0
001C7FE0
003C78F0
003870F0
007820F0
00F020F0
00E023F0
01E027D0
01C03F30
03C03C30
07807870
0700FFE0
0F00FFE0
0200FFE0
ENDCHAR
STARTCHAR threequarters
ENCODING 190
SWIDTH 936 0
DWIDTH 26 0
BBX 26 29 0 -4
BITMAP
80000800
47000E00
7FC01F00
7FE01E00
70F03C00
20F03C00
20F07800
2FE0F800
0FE0F000
2FF1E000
20F1E000
60F3C200
79F38200
7FE78600
5FCF0E00
800F1E00
801E3E00
001C3E40
003C7E80
0078FE80
0071DF80
00F3FF80
00E7FF80
01E00F80
01C00E80
03801E80
0780FF80
07030040
01000000
ENDCHAR
STARTCHAR questiondown
ENCODING 191
SWIDTH 568 0
DWIDTH 16 0
BBX 16 25 0 -9
BITMAP
003E
007E
003F
003E
0008
0040
0078
0078
00F8
00F8
1FF8
3FF0
7E10
F800
F800
F000
F001
F001
F803
7C06
3F1E
1FFE
03F6
0006
0002
ENDCHAR
STARTCHAR Agrave
ENCODING 192
SWIDTH 788 0
DWIDTH 22 0
BBX 32 34 -4 -6
BITMAP
00060000
001E0000
000F0000
000F0000
00070000
00078000
00020000
00000000
00000000
03F00000
00FF8000
003F8000
000FC000
0007C000
000FE000
000FE000
001DF000
001DF000
0038F800
0030F800
00707C00
007FFC00
00FFFE00
00FFFE00
01C03F00
01801F00
03801F80
1FC00F80
FFE00FC0
0FF80FF0
000407FF
00000FF0
00001F00
00007000
ENDCHAR
STARTCHAR Aacute
ENCODING 193
SWIDTH 788 0
DWIDTH 22 0
BBX 32 34 -4 -6
BITMAP
00018000
0003C000
0003C000
00038000
00078000
00070000
00000000
00000000
00000000
03F00000
00FF8000
003F8000
000FC000
0007C000
000FE000
000FE000
001DF000
001DF000
0038F800
0030F800
00707C00
007FFC00
00FFFE00
00FFFE00
01C03F00
01801F00
03801F80
1FC00F80
FFE00FC0
0FF80FF0
000407FF
00000FF0
00001F00
00007000
ENDCHAR
STARTCHAR Acircumflex
ENCODING 194
SWIDTH 788 0
DWIDTH 22 0
BBX 32 33 -4 -6
BITMAP
00030000
00038000
00078000
000FC000
001FE000
003C7000
00102000
00000000
03F00000
00FF8000
003F8000
000FC000
0007C000
000FE000
000FE000
001DF000
001DF000
0038F800
0030F800
00707C00
007FFC00
00FFFE00
00FFFE00
01C03F00
01801F00
03801F80
1FC00F80
FFE00FC0
0FF80FF0
000407FF
00000FF0
00001F00
00007000
ENDCHAR
STARTCHAR Atilde
ENCODING 195
SWIDTH 788 0
DWIDTH 22 0
BBX 32 32 -4 -6
BITMAP
00001000
001FB000
001FF000
001FF000
0011E000
00000000
00000000
03F00000
00FF8000
003F8000
000FC000
0007C000
000FE000
000FE000
001DF000
001DF000
0038F800
0030F800
00707C00
007FFC00
00FFFE00
00FFFE00
01C03F00
01801F00
03801F80
1FC00F80
FFE00FC0
0FF80FF0
000407FF
00000FF0
00001F00
00007000
ENDCHAR
STARTCHAR Adieresis
ENCODING 196
SWIDTH 788 0
DWIDTH 22 0
BBX 32 30 -4 -6
BITMAP
001CE000
001CE000
001CE000
00000000
00000000
03F00000
00FF8000
003F8000
000FC000
0007C000
000FE000
000FE000
001DF000
001DF000
0038F800
0030F800
00707C00
007FFC00
00FFFE00
00FFFE00
01C03F00
01801F00
03801F80
1FC00F80
FFE00FC0
0FF80FF0
000407FF
00000FF0
00001F00
00007000
ENDCHAR
STARTCHAR Aring
ENCODING 197
SWIDTH 788 0
DWIDTH 22 0
BBX 32 30 -4 -6
BITMAP
00030000
0007C000
000CC000
000CC000
0007C000
03F78000
00FF8000
003F8000
000FC000
0007C000
000FE000
000FE000
001DF000
001DF000
0038F800
0030F800
00707C00
007FFC00
00FFFE00
00FFFE00
01C03F00
01801F00
03801F80
1FC00F80
FFE00FC0
0FF80FF0
000407FF
00000FF0
00001F00
00007000
ENDCHAR
STARTCHAR AE
ENCODING 198
SWIDTH 1019 0
DWIDTH 29 0
BBX 34 22 -7 -2
BITMAP
00001FFFC0
007FFFFFC0
001FFFF9C0
0007FF01C0
0001DF08C0
0001DF08C0
00039F0840
00079F1840
00071F1840
000E1F3840
001E1FF840
001C1FF840
00381FF840
003FFF3840
007FFF18C0
00FFFF18C0
00E01F08C0
01C01F01C0
03803FFFC0
1FC1FFFFC0
FFF7FFFFC0
007C000000
ENDCHAR
STARTCHAR Ccedilla
ENCODING 199
SWIDTH 766 0
DWIDTH 21 0
BBX 20 31 1 -10
BITMAP
000010
000010
03FC30
0FFF70
1FFFE0
3F03E0
7E00E0
FC00E0
FC0060
F80020
F80020
F80000
F80000
F80000
F80020
F80020
7C0060
7E0060
3F00E0
1FC7E0
0FFFA0
03FF10
00F010
00C000
01E000
03F000
003800
011800
01F800
03F000
006000
ENDCHAR
STARTCHAR Egrave
ENCODING 200
SWIDTH 781 0
DWIDTH 22 0
BBX 24 29 -3 -1
BITMAP
000600
001E00
001E00
000F00
000F00
000700
000400
000000
0003FF
FFFFFF
1FFFCF
03F007
01F047
01F047
01F042
01F0C2
01F0C1
01F1C1
01FFC2
00FFC2
00FFC2
00F1C2
00F186
00F086
00F046
00F00E
03FFFE
0FFFFE
7FFFFE
ENDCHAR
STARTCHAR Eacute
ENCODING 201
SWIDTH 781 0
DWIDTH 22 0
BBX 24 29 -3 -1
BITMAP
000300
0003C0
000780
000780
000700
000F00
000000
000000
0003FF
FFFFFF
1FFFCF
03F007
01F047
01F047
01F042
01F0C2
01F0C1
01F1C1
01FFC2
00FFC2
00FFC2
00F1C2
00F186
00F086
00F046
00F00E
03FFFE
0FFFFE
7FFFFE
ENDCHAR
STARTCHAR Ecircumflex
ENCODING 202
SWIDTH 781 0
DWIDTH 22 0
BBX 24 30 -3 -1
BITMAP
000400
000E00
001F00
001F80
003F80
0071E0
006040
000000
000000
0003FF
FFFFFF
1FFFCF
03F007
01F047
01F047
01F042
01F0C2
01F0C1
01F1C1
01FFC2
00FFC2
00FFC2
00F1C2
00F186
00F086
00F046
00F00E
03FFFE
0FFFFE
7FFFFE
ENDCHAR
STARTCHAR Edieresis
ENCODING 203
SWIDTH 781 0
DWIDTH 22 0
BBX 24 26 -3 -1
BITMAP
0039C0
0039C0
0039C0
000000
000000
0003FF
FFFFFF
1FFFCF
03F007
01F047
01F047
01F042
01F0C2
01F0C1
01F1C1
01FFC2
00FFC2
00FFC2
00F1C2
00F186
00F086
00F046
00F00E
03FFFE
0FFFFE
7FFFFE
ENDCHAR
STARTCHAR Igrave
ENCODING 204
SWIDTH 445 0
DWIDTH 12 0
BBX 18 30 -3 -2
BITMAP
00C000
03C000
03E000
01E000
00E000
00F000
008000
000000
C00040
3FFF80
07FC00
01F000
01F000
01F000
01F000
01F000
01F000
01F000
01F000
01F000
01F000
01F000
01F000
00F000
00F000
00F000
00F000
00F000
01F800
3FFFC0
ENDCHAR
STARTCHAR Iacute
ENCODING 205
SWIDTH 445 0
DWIDTH 12 0
BBX 18 30 -3 -2
BITMAP
003000
007800
007800
007000
00F000
00E000
000000
000000
C00040
3FFF80
07FC00
01F000
01F000
01F000
01F000
01F000
01F000
01F000
01F000
01F000
01F000
01F000
01F000
00F000
00F000
00F000
00F000
00F000
01F800
3FFFC0
ENDCHAR
STARTCHAR Icircumflex
ENCODING 206
SWIDTH 445 0
DWIDTH 12 0
BBX 18 30 -3 -2
BITMAP
004000
00E000
01F000
01F800
03FC00
071E00
020400
000000
C00040
3FFF80
07FC00
01F000
01F000
01F000
01F000
01F000
01F000
01F000
01F000
01F000
01F000
01F000
01F000
00F000
00F000
00F000
00F000
00F000
01F800
3FFFC0
ENDCHAR
STARTCHAR Idieresis
ENCODING 207
SWIDTH 445 0
DWIDTH 12 0
BBX 18 26 -3 -2
BITMAP
07BC00
07BC00
031800
000000
C00040
3FFF80
07FC00
01F000
01F000
01F000
01F000
01F000
01F000
01F000
01F000
01F000
01F000
01F000
01F000
00F000
00F000
00F000
00F000
00F000
01F800
3FFFC0
ENDCHAR
STARTCHAR Eth
ENCODING 208
SWIDTH 1000 0
DWIDTH 28 0
BBX 27 20 0 -1
BITMAP
FFFFC000
1FFFFC00
07FFFE00
00F81F80
00F80F80
00F807C0
00F807C0
00F803E0
1EF803E0
1FFFC3E0
1FFFC3E0
1FFFC3E0
007803E0
007807C0
007807C0
00780F80
00783F00
01FFFE00
07FFF800
1FE00000
ENDCHAR
STARTCHAR Ntilde
ENCODING 209
SWIDTH 840 0
DWIDTH 24 0
BBX 30 29 -3 -1
BITMAP
00002000
001F6000
001FE000
001FE000
0011C000
00000000
00000000
0004000C
7FF3FFF0
0FF87FC0
03FC0F00
01FE0700
01FE0700
01FF0700
01FF8700
01DFC700
01CFE600
01C7E600
01C3F600
01C1FE00
01C0FE00
01C0FE00
01C07E00
01C03E00
01C01E00
03F80E00
1FFE0600
FFFFE200
00000200
ENDCHAR
STARTCHAR Ograve
ENCODING 210
SWIDTH 808 0
DWIDTH 23 0
BBX 21 26 1 0
BITMAP
003000
00F000
00F000
007800
007800
003800
002000
000000
000000
03FE00
1FFF80
3FFFE0
7E03E0
FC01F0
F801F8
F800F8
F800F8
F800F8
F800F8
F800F8
F801F8
7C01F0
7E03E0
3F9FC0
1FFF80
07FE00
ENDCHAR
STARTCHAR Oacute
ENCODING 211
SWIDTH 808 0
DWIDTH 23 0
BBX 21 25 1 0
BITMAP
003000
003C00
003C00
007800
007000
007000
000000
000000
03FE00
1FFF80
3FFFE0
7E03E0
FC01F0
F801F8
F800F8
F800F8
F800F8
F800F8
F800F8
F801F8
7C01F0
7E03E0
3F9FC0
1FFF80
07FE00
ENDCHAR
STARTCHAR Ocircumflex
ENCODING 212
SWIDTH 808 0
DWIDTH 23 0
BBX 21 26 1 0
BITMAP
002000
007000
00F800
01F800
01FC00
078E00
020400
000000
000000
03FE00
1FFF80
3FFFE0
7E03E0
FC01F0
F801F8
F800F8
F800F8
F800F8
F800F8
F800F8
F801F8
7C01F0
7E03E0
3F9FC0
1FFF80
07FE00
ENDCHAR
STARTCHAR Otilde
ENCODING 213
SWIDTH 808 0
DWIDTH 23 0
BBX 21 25 1 0
BITMAP
000200
01F600
01FE00
01FE00
011C00
000000
000000
000000
03FE00
1FFF80
3FFFE0
7E03E0
FC01F0
F801F8
F800F8
F800F8
F800F8
F800F8
F800F8
F801F8
7C01F0
7E03E0
3F9FC0
1FFF80
07FE00
ENDCHAR
STARTCHAR Odieresis
ENCODING 214
SWIDTH 808 0
DWIDTH 23 0
BBX 21 22 1 0
BITMAP
039C00
03DE00
018C00
000000
000000
03FE00
1FFF80
3FFFE0
7E03E0
FC01F0
F801F8
F800F8
F800F8
F800F8
F800F8
F800F8
F801F8
7C01F0
7E03E0
3F9FC0
1FFF80
07FE00
ENDCHAR
STARTCHAR multiply
ENCODING 215
SWIDTH 556 0
DWIDTH 16 0
BBX 15 15 0 2
BITMAP
1008
3818
7C3C
FE7E
3FFC
1FF8
0FF0
07E0
0FF0
1FF8
3FF8
7E7C
FC3E
301C
2008
ENDCHAR
STARTCHAR Oslash
ENCODING 216
SWIDTH 808 0
DWIDTH 23 0
BBX 21 23 1 -3
BITMAP
000300
0003C0
0007E0
03FFC0
1FFF80
3FFFE0
7E1FE0
FC1FF0
F83FF8
F87CF8
F878F8
F8F8F8
F8F0F8
F9E0F8
F9E1F8
7FC1F0
7FC3E0
3F9FC0
1FFF80
0FFE00
1E0000
1C0000
0C0000
ENDCHAR
STARTCHAR Ugrave
ENCODING 217
SWIDTH 725 0
DWIDTH 20 0
BBX 26 28 -3 -1
BITMAP
000C0000
003E0000
001E0000
001E0000
000F0000
00070000
00040000
00000000
80030040
7F00FF80
0FFC3C00
07C01C00
07C01C00
07C01C00
07C01C00
07C01C00
07C01C00
07C01C00
07C01800
07C01800
07C01800
07C01800
07E01800
03E03800
03F07000
01FFE000
00FFC000
001E0000
ENDCHAR
STARTCHAR Uacute
ENCODING 218
SWIDTH 725 0
DWIDTH 20 0
BBX 26 28 -3 -1
BITMAP
00060000
00078000
000F0000
000F0000
000E0000
001E0000
00000000
00000000
80030040
7F00FF80
0FFC3C00
07C01C00
07C01C00
07C01C00
07C01C00
07C01C00
07C01C00
07C01C00
07C01800
07C01800
07C01800
07C01800
07E01800
03E03800
03F07000
01FFE000
00FFC000
001E0000
ENDCHAR
STARTCHAR Ucircumflex
ENCODING 219
SWIDTH 725 0
DWIDTH 20 0
BBX 26 28 -3 -1
BITMAP
00040000
000E0000
001F0000
001F8000
003F8000
0071E000
00604000
00000000
80030040
7F00FF80
0FFC3C00
07C01C00
07C01C00
07C01C00
07C01C00
07C01C00
07C01C00
07C01C00
07C01800
07C01800
07C01800
07C01800
07E01800
03E03800
03F07000
01FFE000
00FFC000
001E0000
ENDCHAR
STARTCHAR Udieresis
ENCODING 220
SWIDTH 725 0
DWIDTH 20 0
BBX 26 25 -3 -1
BITMAP
0039C000
0039C000
0039C000
00000000
00000000
80030040
7F00FF80
0FFC3C00
07C01C00
07C01C00
07C01C00
07C01C00
07C01C00
07C01C00
07C01C00
07C01800
07C01800
07C01800
07C01800
07E01800
03E03800
03F07000
01FFE000
00FFC000
001E0000
ENDCHAR
STARTCHAR Yacute
ENCODING 221
SWIDTH 848 0
DWIDTH 24 0
BBX 30 28 -4 -2
BITMAP
00007000
00007800
00007800
0000F000
0000E000
0000E000
00000000
00010000
FFFE0000
1FF86000
03F81FFC
00F807C0
007C0700
003E0E00
003F1C00
001FB800
000FF000
0007E000
0003C000
0003C000
0003C000
0003C000
0003E000
0003E000
0003E000
0003E000
000FFC00
007FFFC0
ENDCHAR
STARTCHAR Thorn
ENCODING 222
SWIDTH 745 0
DWIDTH 21 0
BBX 24 19 -3 -1
BITMAP
FFFF80
0FFE00
03F000
01E000
01FFE0
01FFFC
01F0FE
01E01F
01E00F
01F00F
01F01E
01F3FC
01FFF0
01FF00
01F000
01F000
03F800
0FFF00
7FFFC0
ENDCHAR
STARTCHAR germandbls
ENCODING 223
SWIDTH 986 0
DWIDTH 28 0
BBX 29 37 -1 -11
BITMAP
003F0000
007FC000
00FFE000
01E0F000
03C07000
03C07800
03803800
07803800
07803800
07803800
07807800
07807800
7FC0F000
7FC1F000
03C1E000
03C3C000
03C3C000
03C3C000
03C3E000
03C3F000
03E1FC00
03E0FF80
01E07FE0
01E11FF0
01E107F8
01E181F8
01E1C0F8
01E1F0F0
01E3FFF0
01E33FC0
E1E20000
F1E20000
F1E00000
E1E00000
F3C00000
7F800000
1F000000
ENDCHAR
STARTCHAR agrave
ENCODING 224
SWIDTH 572 0
DWIDTH 16 0
BBX 17 25 1 -1
BITMAP
00C000
03E000
01E000
01E000
00F000
007000
004000
000000
020000
1FE000
7FF000
707800
F87800
F83C00
703C00
003C00
3FFC00
FFF800
F07800
F07800
F07800
FFF800
3FF800
00FF00
00E080
ENDCHAR
STARTCHAR aacute
ENCODING 225
SWIDTH 572 0
DWIDTH 16 0
BBX 17 25 1 -1
BITMAP
00C000
00F000
00E000
01E000
01C000
01C000
000000
000000
020000
1FE000
7FF000
707800
F87800
F83C00
703C00
003C00
3FFC00
FFF800
F07800
F07800
F07800
FFF800
3FF800
00FF00
00E080
ENDCHAR
STARTCHAR acircumflex
ENCODING 226
SWIDTH 572 0
DWIDTH 16 0
BBX 17 26 1 -1
BITMAP
018000
01C000
03C000
07E000
0FF000
1E3800
081000
000000
000000
020000
1FE000
7FF000
707800
F87800
F83C00
703C00
003C00
3FFC00
FFF800
F07800
F07800
F07800
FFF800
3FF800
00FF00
00E080
ENDCHAR
STARTCHAR atilde
ENCODING 227
SWIDTH 572 0
DWIDTH 16 0
BBX 17 24 1 -1
BITMAP
000800
0FD800
0FF800
0FF800
087000
000000
000000
020000
1FE000
7FF000
707800
F87800
F83C00
703C00
003C00
3FFC00
FFF800
F07800
F07800
F07800
FFF800
3FF800
00FF00
00E080
ENDCHAR
STARTCHAR adieresis
ENCODING 228
SWIDTH 572 0
DWIDTH 16 0
BBX 17 22 1 -1
BITMAP
1EF000
1EF000
0C6000
000000
000000
020000
1FE000
7FF000
707800
F87800
F83C00
703C00
003C00
3FFC00
FFF800
F07800
F07800
F07800
FFF800
3FF800
00FF00
00E080
ENDCHAR
STARTCHAR aring
ENCODING 229
SWIDTH 572 0
DWIDTH 16 0
BBX 17 22 1 -1
BITMAP
01C000
03E000
066000
066000
03E000
03C000
1FE000
7FF000
707800
F87800
F83C00
703C00
003C00
3FFC00
FFF800
F07800
F07800
F07800
FFF800
3FF800
00FF00
00E080
ENDCHAR
STARTCHAR ae
ENCODING 230
SWIDTH 1022 0
DWIDTH 29 0
BBX 28 17 0 -1
BITMAP
01000000
1FF00400
3FF8FF80
7879FFC0
783FE1E0
783FC0F0
783F80F0
003FFFF0
3FFFFFF0
7FFFE000
F83FC000
F07FE020
F87DFFC0
7FF8FF80
3FFC3E00
007F0000
00708000
ENDCHAR
STARTCHAR ccedilla
ENCODING 231
SWIDTH 589 0
DWIDTH 17 0
BBX 15 24 1 -10
BITMAP
03E0
0FF8
3FFC
7C3E
783E
F83E
F81C
F800
F802
F802
F802
7C06
7F3C
3FFC
1FF0
03C0
0300
0780
0FC0
00E0
0460
07E0
0FC0
0180
ENDCHAR
STARTCHAR egrave
ENCODING 232
SWIDTH 593 0
DWIDTH 17 0
BBX 15 24 1 -2
BITMAP
00C0
03C0
01E0
01E0
00E0
00F0
0040
0000
0000
07C0
1FF0
3FF8
7C3C
F81E
F01E
F01E
FFFE
FFFE
F000
7802
7C0C
3FF8
1FF0
0380
ENDCHAR
STARTCHAR eacute
ENCODING 233
SWIDTH 593 0
DWIDTH 17 0
BBX 15 23 1 -2
BITMAP
00C0
00F0
01E0
01C0
01C0
0380
0000
0000
07C0
1FF0
3FF8
7C3C
F81E
F01E
F01E
FFFE
FFFE
F000
7802
7C0C
3FF8
1FF0
0380
ENDCHAR
STARTCHAR ecircumflex
ENCODING 234
SWIDTH 593 0
DWIDTH 17 0
BBX 15 24 1 -2
BITMAP
0180
01C0
03C0
07E0
0FF0
1E38
0810
0000
0000
07C0
1FF0
3FF8
7C3C
F81E
F01E
F01E
FFFE
FFFE
F000
7802
7C0C
3FF8
1FF0
0380
ENDCHAR
STARTCHAR edieresis
ENCODING 235
SWIDTH 593 0
DWIDTH 17 0
BBX 15 20 1 -2
BITMAP
0E70
0F78
0630
0000
0000
07C0
1FF0
3FF8
7C3C
F81E
F01E
F01E
FFFE
FFFE
F000
7802
7C0C
3FF8
1FF0
0380
ENDCHAR
STARTCHAR igrave
ENCODING 236
SWIDTH 393 0
DWIDTH 11 0
BBX 13 24 -1 0
BITMAP
0300
0F00
0F80
0780
0380
03C0
0200
0000
0000
FFC0
3FC0
0FC0
07C0
07C0
07C0
03C0
03C0
03C0
03C0
0380
0380
07C0
1FE0
7FF8
ENDCHAR
STARTCHAR iacute
ENCODING 237
SWIDTH 393 0
DWIDTH 11 0
BBX 13 24 -1 0
BITMAP
01C0
01E0
01E0
03C0
0380
0380
0000
0000
0000
FFC0
3FC0
0FC0
07C0
07C0
07C0
03C0
03C0
03C0
03C0
0380
0380
07C0
1FE0
7FF8
ENDCHAR
STARTCHAR icircumflex
ENCODING 238
SWIDTH 393 0
DWIDTH 11 0
BBX 13 24 -1 0
BITMAP
0100
0380
07C0
0FC0
0FE0
3C70
1030
0000
0000
FFC0
3FC0
0FC0
07C0
07C0
07C0
03C0
03C0
03C0
03C0
0380
0380
07C0
1FE0
7FF8
ENDCHAR
STARTCHAR idieresis
ENCODING 239
SWIDTH 393 0
DWIDTH 11 0
BBX 13 20 -1 0
BITMAP
0E70
0E70
0E60
0000
0000
FFC0
3FC0
0FC0
07C0
07C0
07C0
03C0
03C0
03C0
03C0
0380
0380
07C0
1FE0
7FF8
ENDCHAR
STARTCHAR eth
ENCODING 240
SWIDTH 672 0
DWIDTH 19 0
BBX 19 26 0 -3
BITMAP
300000
0E0180
0387C0
01DF80
00FE00
00FC00
01FC00
07FE00
0FDF00
030F00
020780
000780
03FFC0
1FFFC0
3F9FC0
7C07E0
F803E0
F003E0
F003E0
F003E0
F003C0
F803C0
7C0780
3FFF00
0FFE00
00E000
ENDCHAR
STARTCHAR ntilde
ENCODING 241
SWIDTH 643 0
DWIDTH 18 0
BBX 23 20 -3 2
BITMAP
000040
007C80
007F80
007F80
004780
000000
000000
03E780
FFFFE0
0FFFF0
03F1F0
03E0F0
01E0F0
01E070
01C070
01C070
01C070
03F070
1FF8F0
001FFE
ENDCHAR
STARTCHAR ograve
ENCODING 242
SWIDTH 705 0
DWIDTH 20 0
BBX 19 22 0 0
BITMAP
003000
00F000
00F000
007800
007800
003800
002000
000000
000000
07FE00
1FFF80
3E07C0
7C03E0
7801E0
F801E0
F801E0
F801E0
7801E0
7C03E0
3E0FC0
1FFF00
07FC00
ENDCHAR
STARTCHAR oacute
ENCODING 243
SWIDTH 705 0
DWIDTH 20 0
BBX 19 22 0 0
BITMAP
003000
007C00
007800
007000
00F000
00E000
000000
000000
000000
07FE00
1FFF80
3E07C0
7C03E0
7801E0
F801E0
F801E0
F801E0
7801E0
7C03E0
3E0FC0
1FFF00
07FC00
ENDCHAR
STARTCHAR ocircumflex
ENCODING 244
SWIDTH 705 0
DWIDTH 20 0
BBX 19 22 0 0
BITMAP
002000
007000
00F800
01F800
03FC00
078E00
020400
000000
000000
07FE00
1FFF80
3E07C0
7C03E0
7801E0
F801E0
F801E0
F801E0
7801E0
7C03E0
3E0FC0
1FFF00
07FC00
ENDCHAR
STARTCHAR otilde
ENCODING 245
SWIDTH 705 0
DWIDTH 20 0
BBX 19 21 0 0
BITMAP
000200
03F600
03FE00
03FE00
021C00
000000
000000
000000
07FE00
1FFF80
3E07C0
7C03E0
7801E0
F801E0
F801E0
F801E0
7801E0
7C03E0
3E0FC0
1FFF00
07FC00
ENDCHAR
STARTCHAR odieresis
ENCODING 246
SWIDTH 705 0
DWIDTH 20 0
BBX 19 19 0 0
BITMAP
03DE00
03DE00
018C00
000000
000000
000000
07FE00
1FFF80
3E07C0
7C03E0
7801E0
F801E0
F801E0
F801E0
7801E0
7C03E0
3E0FC0
1FFF00
07FC00
ENDCHAR
STARTCHAR divide
ENCODING 247
SWIDTH 504 0
DWIDTH 14 0
BBX 14 16 0 0
BITMAP
0380
07C0
07C0
07C0
0380
0000
FFF0
FFFC
FFFC
FFFC
0000
0100
07C0
0FC0
0FC0
0780
ENDCHAR
STARTCHAR oslash
ENCODING 248
SWIDTH 705 0
DWIDTH 20 0
BBX 19 21 0 -4
BITMAP
000200
000780
000780
000F80
07FF00
1FFF80
3E3FC0
7C3FE0
7879E0
F879E0
F8F1E0
F8F1E0
79E1E0
7FC3E0
3FCFC0
1FFF00
07FC00
0F0000
1E0000
0E0000
040000
ENDCHAR
STARTCHAR ugrave
ENCODING 249
SWIDTH 614 0
DWIDTH 17 0
BBX 22 23 -3 -1
BITMAP
003000
00F800
007800
003800
003C00
001C00
001000
000000
FFB000
1F8FF0
0F83F0
0781E0
0781E0
0781E0
0781E0
0781E0
0781E0
0781E0
0781C0
07C7C0
03FFE0
01FDFC
0001E0
ENDCHAR
STARTCHAR uacute
ENCODING 250
SWIDTH 614 0
DWIDTH 17 0
BBX 22 23 -3 -1
BITMAP
000C00
001E00
001E00
001C00
003C00
003800
000000
000000
FFB000
1F8FF0
0F83F0
0781E0
0781E0
0781E0
0781E0
0781E0
0781E0
0781E0
0781C0
07C7C0
03FFE0
01FDFC
0001E0
ENDCHAR
STARTCHAR ucircumflex
ENCODING 251
SWIDTH 614 0
DWIDTH 17 0
BBX 22 24 -3 -1
BITMAP
001800
003800
003C00
007E00
00FF00
01C780
008100
000000
000000
FFB000
1F8FF0
0F83F0
0781E0
0781E0
0781E0
0781E0
0781E0
0781E0
0781E0
0781C0
07C7C0
03FFE0
01FDFC
0001E0
ENDCHAR
STARTCHAR udieresis
ENCODING 252
SWIDTH 614 0
DWIDTH 17 0
BBX 22 20 -3 -1
BITMAP
01EF00
01EF00
00C600
000000
000000
FFB000
1F8FF0
0F83F0
0781E0
0781E0
0781E0
0781E0
0781E0
0781E0
0781E0
0781C0
07C7C0
03FFE0
01FDFC
0001E0
ENDCHAR
STARTCHAR yacute
ENCODING 253
SWIDTH 655 0
DWIDTH 18 0
BBX 20 36 -2 -13
BITMAP
001800
003C00
003C00
003800
007800
007000
000000
800000
600000
3C7C00
1F8FF0
0FC7E0
0F81E0
0F81E0
1F81E0
1F01E0
1F01E0
1F01E0
1F01E0
0FC3E0
0FFFE0
07FFE0
0003E0
0003E0
0003E0
0003E0
0003E0
0003E0
0E03E0
1F03C0
1E03C0
1E07C0
0E0F80
07FF00
03FE00
007000
ENDCHAR
STARTCHAR thorn
ENCODING 254
SWIDTH 734 0
DWIDTH 21 0
BBX 24 31 -3 -12
BITMAP
FFF000
0FF000
03F000
01F000
01F000
01F000
01F000
01F000
01F000
01F000
01FFE0
01FFF8
01F07C
01F01E
01F01F
01F00F
01F00F
01F01F
01F01E
01F03E
01FFFC
01FFF8
01F7C0
00F000
00F000
00F000
00F000
00F000
03FC00
0FFF80
380000
ENDCHAR
STARTCHAR ydieresis
ENCODING 255
SWIDTH 655 0
DWIDTH 18 0
BBX 20 33 -2 -13
BITMAP
03DE00
03DE00
018C00
000000
800000
600000
3C7C00
1F8FF0
0FC7E0
0F81E0
0F81E0
1F81E0
1F01E0
1F01E0
1F01E0
1F01E0
0FC3E0
0FFFE0
07FFE0
0003E0
0003E0
0003E0
0003E0
0003E0
0003E0
0E03E0
1F03C0
1E03C0
1E07C0
0E0F80
07FF00
03FE00
007000
ENDCHAR
STARTCHAR dotlessi
ENCODING 305
SWIDTH 393 0
DWIDTH 11 0
BBX 13 15 -1 0
BITMAP
FFC0
3FC0
0FC0
07C0
07C0
07C0
03C0
03C0
03C0
03C0
0380
0380
07C0
1FE0
7FF8
ENDCHAR
STARTCHAR Lslash
ENCODING 321
SWIDTH 713 0
DWIDTH 20 0
BBX 23 22 -3 0
BITMAP
FFFFE0
0FFE00
01F800
01F800
01F800
01F800
01FB00
00FF00
00FF80
00FF82
03FE02
1FF002
0FF006
0EF006
08F006
00F00E
00F00E
00F00E
00F01E
03FFFE
0FFFFE
3F8000
ENDCHAR
STARTCHAR lslash
ENCODING 322
SWIDTH 365 0
DWIDTH 10 0
BBX 15 26 -3 -2
BITMAP
FFE0
1FE0
03E0
03E0
03E0
03E0
03E0
03E0
03EC
03FE
03FE
0FF8
3FE0
3FC0
3FC0
19C0
01C0
01C0
01C0
01C0
01C0
01C0
01C0
03E0
07F8
3FFC
ENDCHAR
STARTCHAR OE
ENCODING 338
SWIDTH 1195 0
DWIDTH 33 0
BBX 32 21 0 -1
BITMAP
000003FF
007FFFFF
000FFFE7
0000FC07
01F0FC23
0FFEFC23
3FBF7C21
7C0FFC61
7807FC61
F803FCE1
F803FFE1
F803FFE1
F803FFE1
7803FCE1
7807FC63
3C0FFC63
3F3F7823
0FFC7807
01F0FFFF
0007FFFF
003FFFFF
ENDCHAR
STARTCHAR oe
ENCODING 339
SWIDTH 1087 0
DWIDTH 30 0
BBX 30 15 0 -2
BITMAP
03E00000
1FFC3FC0
3FBFFFF0
7C0FF9F8
7807E078
F007E07C
F007C03C
F007FFFC
7807FFFC
7807C000
3C1FE004
1FFFF018
0FF8FFF0
00007FE0
00000F00
ENDCHAR
STARTCHAR Scaron
ENCODING 352
SWIDTH 661 0
DWIDTH 19 0
BBX 18 31 0 -3
BITMAP
060C00
071C00
03F800
01F000
01F000
00E000
004000
000000
000040
000040
0FF8C0
3FFFC0
7C1FC0
780780
F80180
FC0080
FF8080
7FF800
3FFE00
1FFF00
03FF80
203FC0
200FC0
2007C0
3007C0
3C07C0
3FFF80
2FFE00
61F800
400000
400000
ENDCHAR
STARTCHAR scaron
ENCODING 353
SWIDTH 533 0
DWIDTH 15 0
BBX 14 26 1 -1
BITMAP
1020
3CF0
1FE0
0FC0
0780
0300
0300
0000
0008
3F88
7FE8
F0F8
E038
F018
FC08
FF88
7FE0
3FF8
8FF8
C1FC
C07C
F03C
FEF8
FFF0
8FE0
8000
ENDCHAR
STARTCHAR Ydieresis
ENCODING 376
SWIDTH 848 0
DWIDTH 24 0
BBX 30 25 -4 -2
BITMAP
00073800
00077800
00063000
00000000
00010000
FFFE0000
1FF86000
03F81FFC
00F807C0
007C0700
003E0E00
003F1C00
001FB800
000FF000
0007E000
0003C000
0003C000
0003C000
0003C000
0003E000
0003E000
0003E000
0003E000
000FFC00
007FFFC0
ENDCHAR
STARTCHAR Zcaron
ENCODING 381
SWIDTH 685 0
DWIDTH 19 0
BBX 20 26 0 0
BITMAP
020600
078E00
01FC00
01F800
00F000
007000
002000
000000
000000
FFFFF0
7FFFE0
7FFFC0
701F80
303F80
303F00
207E00
20FC20
21F820
03F820
07F060
0FE060
0FC0E0
1F81E0
3FFFE0
7FFFC0
801FC0
ENDCHAR
STARTCHAR zcaron
ENCODING 382
SWIDTH 549 0
DWIDTH 15 0
BBX 17 25 0 -1
BITMAP
081800
1E3800
07F000
07E000
03E000
01C000
008000
000000
000000
003F80
FFFF00
7FFE00
707C00
70F800
61F800
21F000
23E200
27E200
0FC600
1F8600
1F0E00
3F8E00
7FFE00
FFFE00
000200
ENDCHAR
STARTCHAR circumflex
ENCODING 710
SWIDTH 714 0
DWIDTH 20 0
BBX 10 7 6 19
BITMAP
0C00
0E00
1E00
3F00
7F80
F1C0
4080
ENDCHAR
STARTCHAR caron
ENCODING 711
SWIDTH 714 0
DWIDTH 20 0
BBX 10 7 6 19
BITMAP
4080
F3C0
7F80
3F00
1E00
0E00
0400
ENDCHAR
STARTCHAR breve
ENCODING 728
SWIDTH 715 0
DWIDTH 20 0
BBX 9 5 7 21
BITMAP
8180
E300
FF00
7E00
3C00
ENDCHAR
STARTCHAR dotaccent
ENCODING 729
SWIDTH 708 0
DWIDTH 20 0
BBX 4 3 8 23
BITMAP
E0
F0
60
ENDCHAR
STARTCHAR ring
ENCODING 730
SWIDTH 704 0
DWIDTH 20 0
BBX 6 6 8 20
BITMAP
78
FC
CC
CC
F8
70
ENDCHAR
STARTCHAR ogonek
ENCODING 731
SWIDTH 988 0
DWIDTH 28 0
BBX 10 7 9 -3
BITMAP
6000
E000
E000
E000
F0C0
FFC0
7F00
ENDCHAR
STARTCHAR tilde
ENCODING 732
SWIDTH 707 0
DWIDTH 20 0
BBX 8 5 7 20
BITMAP
01
FB
FF
FF
8F
ENDCHAR
STARTCHAR hungarumlaut
ENCODING 733
SWIDTH 671 0
DWIDTH 19 0
BBX 10 6 5 21
BITMAP
3180
3FC0
7BC0
7B80
7780
F700
ENDCHAR
STARTCHAR endash
ENCODING 8211
SWIDTH 576 0
DWIDTH 16 0
BBX 12 5 2 8
BITMAP
0030
FFF0
FFF0
FFF0
03F0
ENDCHAR
STARTCHAR emdash
ENCODING 8212
SWIDTH 993 0
DWIDTH 28 0
BBX 24 4 2 8
BITMAP
FFFFFF
FFFFFF
FFFFFF
FFFFFF
ENDCHAR
STARTCHAR quoteleft
ENCODING 8216
SWIDTH 261 0
DWIDTH 7 0
BBX 7 8 0 12
BITMAP
1C
1E
3E
3C
7C
7C
F8
18
ENDCHAR
STARTCHAR quoteright
ENCODING 8217
SWIDTH 301 0
DWIDTH 8 0
BBX 7 8 1 12
BITMAP
30
3E
7C
7C
78
F8
F0
20
ENDCHAR
STARTCHAR quotesinglbase
ENCODING 8218
SWIDTH 332 0
DWIDTH 9 0
BBX 7 8 1 -2
BITMAP
30
3E
7C
7C
78
F8
F0
20
ENDCHAR
STARTCHAR quotedblleft
ENCODING 8220
SWIDTH 477 0
DWIDTH 13 0
BBX 13 8 0 12
BITMAP
1C70
1E78
3EF8
3CF0
7DF0
7DF0
FBE0
1860
ENDCHAR
STARTCHAR quotedblright
ENCODING 8221
SWIDTH 477 0
DWIDTH 13 0
BBX 13 8 0 12
BITMAP
30E0
3EF8
3EF8
7DF0
7DF0
79E0
F3C0
30C0
ENDCHAR
STARTCHAR quotedblbase
ENCODING 8222
SWIDTH 477 0
DWIDTH 13 0
BBX 13 8 0 -2
BITMAP
30E0
3EF8
3EF8
7DF0
7DF0
79E0
F3C0
30C0
ENDCHAR
STARTCHAR dagger
ENCODING 8224
SWIDTH 487 0
DWIDTH 14 0
BBX 12 31 1 -8
BITMAP
0F00
0F00
0F00
0F00
0F00
0F00
FF00
FFF0
FFF0
FFF0
FF00
0F00
0F00
0F00
0F00
0F00
0F00
0F00
0F00
0F00
0F00
0F00
0F00
0F00
0F00
0F00
0F00
0F00
0F00
0F00
0F00
ENDCHAR
STARTCHAR daggerdbl
ENCODING 8225
SWIDTH 497 0
DWIDTH 14 0
BBX 12 31 1 -8
BITMAP
0F00
0F00
0F00
0F00
0F00
0F00
FF00
FFF0
FFF0
FFF0
FF00
0F00
0F00
1FF0
FFF0
FFF0
FFF0
0F10
0F00
0F00
0F00
0F00
0F00
0F00
0F00
0F00
0F00
0F00
0F00
0F00
0F00
ENDCHAR
STARTCHAR bullet
ENCODING 8226
SWIDTH 275 0
DWIDTH 8 0
BBX 8 8 0 7
BITMAP
10
7C
FE
FF
FF
FF
7E
3C
ENDCHAR
STARTCHAR ellipsis
ENCODING 8230
SWIDTH 787 0
DWIDTH 22 0
BBX 22 4 0 -2
BITMAP
787878
FCFCFC
FCFCFC
7C78F8
ENDCHAR
STARTCHAR perthousand
ENCODING 8240
SWIDTH 888 0
DWIDTH 25 0
BBX 26 23 0 -1
BITMAP
00080000
080F0000
7E1E0000
FF1E0000
E73C0000
E73C0000
E73C0000
7F780000
3E780000
00F00000
00F00000
00E00000
01E00000
01E00000
03C00000
03CF9F80
039FFF80
07BCF9C0
0738F9C0
0F38F9C0
0E1FFF80
0E0F9F00
1E000000
ENDCHAR
STARTCHAR guilsinglleft
ENCODING 8249
SWIDTH 234 0
DWIDTH 7 0
BBX 6 15 0 -1
BITMAP
04
0C
0C
1C
38
78
70
F0
70
78
38
1C
0C
0C
04
ENDCHAR
STARTCHAR guilsinglright
ENCODING 8250
SWIDTH 223 0
DWIDTH 6 0
BBX 6 15 0 -1
BITMAP
40
40
E0
70
70
38
3C
1C
3C
38
70
70
E0
40
40
ENDCHAR
STARTCHAR fraction
ENCODING 8260
SWIDTH 600 0
DWIDTH 17 0
BBX 19 26 -1 -3
BITMAP
000300
0007C0
0007E0
000FC0
000F80
001F80
003F00
003E00
007E00
007C00
00FC00
00F800
01F000
03F000
03E000
07C000
07C000
0F8000
0F8000
1F0000
3E0000
3E0000
7C0000
7C0000
F80000
300000
ENDCHAR
STARTCHAR Euro
ENCODING 8364
SWIDTH 590 0
DWIDTH 17 0
BBX 18 17 -1 1
BITMAP
00FE00
03FF00
078780
0F0780
0F0780
1E0780
FFF100
FFF000
1E0000
1E0800
FFF840
FFF840
0F8180
0FC380
07FF00
03FE00
007800
ENDCHAR
STARTCHAR trademark
ENCODING 8482
SWIDTH 624 0
DWIDTH 17 0
BBX 18 12 0 9
BITMAP
100000
100000
300000
F00000
FC0000
600000
67FF00
619D80
619980
649980
659B80
7A7C40
ENDCHAR
STARTCHAR minus
ENCODING 8722
SWIDTH 549 0
DWIDTH 15 0
BBX 15 5 0 7
BITMAP
FFFE
FFFE
FFFE
FFFE
FF00
ENDCHAR
STARTCHAR fi
ENCODING 64257
SWIDTH 757 0
DWIDTH 21 0
BBX 24 38 -1 -11
BITMAP
003E00
00FF80
01FFE0
03C1E0
03C1F0
0781F0
0781F0
0781F0
0781F0
0781E0
078000
078000
078000
7FFFF0
7FFFF0
07C1F0
03C1F0
03C0F0
03C0F0
03C0F0
03C0F0
03E0F0
03E0F0
03E0F0
01E1F0
01E3F8
01EFFE
01E001
01E000
01E000
01E000
E1E000
F1E000
F1E000
E1E000
F3C000
7F8000
1F0000
ENDCHAR
STARTCHAR fl
ENCODING 64258
SWIDTH 776 0
DWIDTH 22 0
BBX 24 38 -1 -11
BITMAP
003F00
00FF80
01E7C0
03C1E0
0381F0
0781F0
0780F0
0780F0
0780F0
0780F8
0780F8
0780F8
0780F0
7FFCF0
7FFCF0
07C0F0
03C0F0
03C0F0
03C0F0
03C0F0
03C0F0
03E0F0
03E0F0
03E0F0
01E0F0
01E0F0
01E0F8
01E3FC
01EFFF
01E000
01E000
E1E000
F1E000
F1E000
E1E000
F3C000
7F8000
1F0000
ENDCHAR
STARTCHAR .notdef
ENCODING -1
SWIDTH 320 0
DWIDTH 9 0
BBX 1 1 0 0
BITMAP
00
ENDCHAR
ENDFONT
